<svg xmlns="http://www.w3.org/2000/svg" viewBox="0 0 100 100"><path id="favicon" d="m72.484 36.457c0.902 0 1.757 0.23 2.519 0.636-1.183 0.101-2.109 1.191-2.109 2.515 0 1.394 1.027 2.523 2.293 2.523 1.257 0 2.281-1.113 2.293-2.496 0.484 0.929 0.761 2.003 0.761 3.152 0 3.496-2.578 6.332-5.757 6.332s-5.757-2.835-5.757-6.332c0-3.496 2.578-6.332 5.757-6.332zm-63.77 47.512c0-0.585 0.476-1.062 1.062-1.062 0.585 0 1.062 0.476 1.062 1.062v0.011c0 0.585-0.476 1.062-1.062 1.062-0.585 0-1.062-0.476-1.062-1.062zm11.816-24.043c0-0.585 0.476-1.062 1.062-1.062s1.062 0.476 1.062 1.062v0.011c0 0.585-0.476 1.062-1.062 1.062s-1.062-0.476-1.062-1.062zm0 24.043c0-0.585 0.476-1.062 1.062-1.062s1.062 0.476 1.062 1.062v0.011c0 0.585-0.476 1.062-1.062 1.062s-1.062-0.476-1.062-1.062zm60.34-57.098-40.66-13.676c-7.289-2.453-12.547-1.55-16.387 1.261-3.656 2.675-6.109 7.097-7.843 12.039l40.348 12.875c6.347 0.574 10.238-2.789 14.133-6.16 0.804-0.695 1.605-1.39 2.429-2.054 0.019-0.015 0.039-0.031 0.058-0.046 2.324-1.871 4.812-3.503 7.921-4.238zm0.644 2.050c-2.066 0.476-3.851 1.402-5.503 2.543 1.824 0.675 3.433 1.859 4.683 3.398 1.718 2.113 2.761 4.89 2.761 7.929 0 3.281-1.214 6.257-3.179 8.421-1.988 2.187-4.742 3.539-7.789 3.539s-5.8-1.351-7.789-3.539c-1.964-2.16-3.179-5.14-3.179-8.421 0-0.562 0.039-1.128 0.113-1.695-1.375 0.343-2.875 0.511-4.535 0.441-0.003 0.046-0.007 0.093-0.011 0.14-0.023 0.335-0.039 0.687-0.039 1.109 0 4.742 1.742 9.027 4.554 12.121 1.632 1.796 3.628 3.191 5.851 4.039l1.636 0.515c1.093 0.273 2.23 0.414 3.398 0.414 4.246 0 8.093-1.898 10.887-4.968 2.816-3.097 4.554-7.382 4.554-12.121 0-2.902-0.652-5.632-1.8-8.019-1.117-2.32-2.699-4.32-4.609-5.847zm8.207 10.18c-0.332-1.859-0.906-3.621-1.691-5.25-0.957-1.988-2.222-3.769-3.73-5.269 0.601-0.011 1.222 0.011 1.871 0.074l6.218 2.093c0.722 0.335 1.214 0.812 1.503 1.371 0.328 0.64 0.398 1.414 0.242 2.214-0.167 0.863-0.593 1.742-1.23 2.531-0.773 0.953-1.855 1.761-3.179 2.238zm-64.141 37.598h-6.589c-1.492 0-2.851-0.609-3.835-1.593s-1.593-2.339-1.593-3.835c0-1.492 0.609-2.851 1.593-3.835s2.339-1.593 3.835-1.593h6.589v-9.683c0-0.386-0.16-0.738-0.414-0.996-0.257-0.257-0.609-0.414-0.996-0.414l-16.977 0.003c-0.386 0-0.738 0.16-0.996 0.414-0.257 0.257-0.414 0.609-0.414 0.996v30.656c0 0.386 0.16 0.738 0.414 0.996 0.257 0.257 0.609 0.414 0.996 0.414h16.973c0.386 0 0.738-0.16 0.996-0.414 0.257-0.257 0.414-0.609 0.414-0.996v-10.117zm24.762-11.516h-10.652c-0.132 0-0.257 0.054-0.347 0.144s-0.144 0.21-0.144 0.347v11.199c0 0.132 0.054 0.257 0.144 0.347s0.21 0.144 0.347 0.144h10.652c0.132 0 0.257-0.054 0.347-0.144s0.144-0.21 0.144-0.347v-11.199c0-0.132-0.054-0.257-0.144-0.347s-0.21-0.144-0.347-0.144zm-13.266 9.394h-18.086c-0.906 0-1.734-0.371-2.332-0.972-0.597-0.597-0.972-1.425-0.972-2.332s0.371-1.734 0.972-2.332c0.601-0.597 1.425-0.972 2.332-0.972h18.086zm2.121-22.273v6.066c0 0.132 0.054 0.257 0.144 0.347s0.21 0.144 0.347 0.144h10.652c0.132 0 0.257-0.054 0.347-0.144s0.144-0.21 0.144-0.347v-2.414l-11.633-3.652zm12.953 1.843-13.629-4.277c-0.039-0.015-0.082-0.027-0.125-0.039l-6.312-1.980c-8.089-2.726-12.332-5.574-14.168-8.765-1.636-2.839-1.363-6.082-0.242-9.835l37.324 11.91c-0.011 0.125-0.023 0.242-0.031 0.359-0.031 0.41-0.046 0.812-0.046 1.265 0 5.285 1.953 10.074 5.113 13.551 0.125 0.136 0.25 0.269 0.378 0.402l-8.128-2.550c-0.039-0.015-0.082-0.027-0.125-0.039zm-4.453 8.910v-2.074h-5.363v2.074zm-38.984-3.132c0-0.585 0.476-1.062 1.062-1.062 0.585 0 1.062 0.476 1.062 1.062v0.011c0 0.585-0.476 1.062-1.062 1.062-0.585 0-1.062-0.476-1.062-1.062z" fill-rule="evenodd"/></svg>
