<?xml version="1.0" encoding="UTF-8"?>
<!DOCTYPE svg PUBLIC "-//W3C//DTD SVG 1.1//EN" "http://www.w3.org/Graphics/SVG/1.1/DTD/svg11.dtd"><svg xmlns="http://www.w3.org/2000/svg" xmlns:xlink="http://www.w3.org/1999/xlink">
<symbol id="gallery" viewBox="5 5 120 120"><g><path d="M49.985,34.074c-1.986,1.391-.412,3.522.55,5.035.6.955,1.261,3.194,2.682,2.758a36.207,36.207,0,0,0,5.5-2.383.7.7,0,0,1,.4-.062,13.252,13.252,0,0,0-.7-1.742,3.3,3.3,0,0,1-.267.436,3.575,3.575,0,1,1-4.088-5.562c-.114-.115-.229-.222-.351-.337A31.977,31.977,0,0,0,49.985,34.074Z"/><path d="M107.679,86.893v-.122c0-.039.061-.069.03-.123-3.071-5.386-7.021-10.108-10.513-15.219-3.583-5.234-7.022-10.575-10.72-15.732A14.427,14.427,0,0,1,83.6,56.934c3.835,3.767,6.563,9.077,9.619,13.326,4.034,5.6,7.74,11.353,11.889,16.877C106.013,87.092,106.915,86.946,107.679,86.893Z"/><path d="M84.5,79.581a.893.893,0,0,1,.817-.787c4.539-.688,3.133-7.159,3.66-10.567-.459-.649-.917-1.306-1.375-1.956-3.011,1.574-5.372,4.011-7.84,6.334a26.5,26.5,0,0,1,4.218,7.923C84.154,80.215,84.329,79.9,84.5,79.581Z"/><path d="M97.418,65c-3.194-4-7.144-7.87-9.3-12.569-2.277.229-4.332,1.681-6.219,2.957.007.015.015.038.023.061.137.107.275.214.412.329a8.956,8.956,0,0,0,3.7-1.4.917.917,0,0,1,.13-.039.732.732,0,0,1,1.1.092c3.859,5.333,7.373,10.888,11.125,16.305,3.178,4.6,6.808,8.932,9.742,13.707.221-1.834.619-3.652.947-5.471a29.133,29.133,0,0,1-4.676-5.753C102.354,70.244,99.679,67.822,97.418,65Z"/><path d="M42.543,30.865c-1.948,2.323-.771,5.02.421,7.4,1.742,3.491,3.216,8.144,5.547,11.216,1.788,2.361,3.8,2.208,5.875,1.589,2.277-1.291,4.967-2.1,6.846-3.889,3.033-2.88,1.681-6.693.031-9.917-.061.023-.122.046-.184.076a1.729,1.729,0,0,1-1.283,0c1.123,2.323,1.91,4.944.206,6.433-2.476,2.17-6.93,4.524-10.33,4.18-1.253-.13-2.032-1.544-2.453-2.552-1.237-2.972-3.033-5.807-3.957-8.909-.451-1.513-.841-2.9.443-4.049a29.934,29.934,0,0,1,6.013-3.676c-.451-.336-.909-.657-1.375-.955A9.778,9.778,0,0,0,42.543,30.865Z"/><path d="M75.237,40.385A75.949,75.949,0,0,0,85.491,38.1c6.555-1.911,13.065-3.912,19.766-5.211a19.016,19.016,0,0,0-1.093-6.074c-3.522.932-7.029,1.925-10.582,2.75-3.644.848-7.419,1.146-11.033,2.071-3.583.909-7.037,2.261-10.651,3.056-3.193.7-6.3,1.031-9.352,2.078a16.784,16.784,0,0,1,1.842,5.379C68.04,42.043,71.631,40.92,75.237,40.385Z"/><path d="M54.042,37.665a2.159,2.159,0,0,0,3.408-1.8c-.053-.107-.115-.206-.168-.306-.7-.626-1.406-1.276-2.1-1.948a.451.451,0,0,1-.138.061C53.37,34.066,52.232,36.565,54.042,37.665Z"/><path d="M45.943,32.645c-2.811,1.719-1.214,4.248-.038,6.67.9,1.857,2.682,7.786,5.2,7.213a19.326,19.326,0,0,0,7.128-3.071,2.9,2.9,0,0,0,1.154-2.774,42.094,42.094,0,0,1-4.836,2.185,4.216,4.216,0,0,1-2.354.436c-1.619-.474-2.33-2.644-3.132-3.95-1-1.635-2.055-3.507-1-5.356.833-1.467,2.964-2.071,4.569-2.789-.566-.52-1.139-1.024-1.719-1.5C49.221,30.62,47.586,31.644,45.943,32.645Z"/><path d="M59.123,105.742c.023.061.046.13.062.191,11.919-.412,23.624-4.791,35.513-5.6q-.15-1.617-.207-3.271C82.832,100.47,71.05,103.442,59.123,105.742Z"/><path d="M107.664,74.156a22.275,22.275,0,0,0,3.5,3.6.9.9,0,0,1,.206,1.306.408.408,0,0,1-.007.092c-.5,2.888-1.223,5.73-1.1,8.68a.994.994,0,0,1-.741,1.046,1,1,0,0,1-.787.283c-1.413-.053-2.8.344-4.2.291a1.107,1.107,0,0,1-1.077-.9q-.951-1.284-1.888-2.575v4.592a2.159,2.159,0,0,1,3.064-.267,1.68,1.68,0,0,1-.275,2.865,57.416,57.416,0,0,0,7.732-.764,2.4,2.4,0,0,1-1.115-1.131,1.933,1.933,0,0,1,1.528-2.636,2.82,2.82,0,0,1,1.65.1,113.116,113.116,0,0,0-.817-12.347,3.133,3.133,0,0,1-1.238.229,2.881,2.881,0,0,1-2.307-1.023,1.966,1.966,0,0,1-.314-1.613A14.313,14.313,0,0,0,107.664,74.156Z"/><path d="M60.743,35.006a11.352,11.352,0,0,1,3.79-1.314A88.07,88.07,0,0,0,73.969,31.8c3.56-1.016,7.029-2.315,10.7-2.888,3.27-.512,6.494-1.077,9.7-1.895,6.686-1.711,13.287-3.744,20.1-4.882-1.123-3.148-2.422-7.381-5.386-8.993-2.6-1.421-5.173-.374-7.878.076-2.384.4-4.8.635-7.182,1C83.634,15.8,73.113,17.494,62.913,20.069c-4.92,1.238-9.673,2.865-14.448,4.561l-.711.253c3.805,1.933,6.968,5.233,10.048,8.068C58.336,33.448,59.971,35.434,60.743,35.006Z"/><path d="M112.2,75.741a2.516,2.516,0,0,0,.9-.192,2.7,2.7,0,0,0,.384-.236l.241-.169-.032-.293c-.029-.277-.052-.557-.075-.827l-.036-.445-.446-.014c-.354-.011-.706-.026-1.061-.04-.389-.016-.779-.033-1.172-.044l-.352-.011-.128.329a1.7,1.7,0,0,0-.132.75,1.19,1.19,0,0,0,.331.681,2.188,2.188,0,0,0,1.49.512Z"/><path d="M95.007,90.312c.008-.372.022-.742.038-1.114l.03-.748-.7.257c-1.1.4-3.008.708-3.824.137a.981.981,0,0,1-.4-.882,4.582,4.582,0,0,1,.9-2.194,10.822,10.822,0,0,0,.637-1.133c1.258-2.728.979-5.081-.936-7.866l-.6-.867-.3,1.009a8.365,8.365,0,0,1-.3.845l-.092.226.12.212c1.15,2.015.994,4.326-.464,6.867-.138.238-.3.487-.468.743a7.21,7.21,0,0,0-1.148,2.326,2.567,2.567,0,0,0,.5,2.435,3.049,3.049,0,0,0,2.267.753,8.573,8.573,0,0,0,1.519-.151l.26-.047a15.926,15.926,0,0,1,2.467-.319L95,90.789Z"/><path d="M76.926,45.81A.269.269,0,0,1,77,45.8a23.275,23.275,0,0,1,4.691-2.995,1.651,1.651,0,0,1,.314-.1c3.163-1.574,6.632-1.987,10.085-2.5a1.644,1.644,0,0,1,.329,0,1.063,1.063,0,0,1,1.161.528c.168.3.344.634.512.985,2.682-.519,5.8-.71,8.114-2.162a6.787,6.787,0,0,0,2.98-5.249c-7.457,1.49-14.616,3.942-21.966,5.853-3.362.871-6.732,1.253-10.124,1.91a54.827,54.827,0,0,1-8.649,1.451,6.613,6.613,0,0,1-1.024,3.309,8.014,8.014,0,0,1-2.193,2.2c1-.275,2-.535,3.011-.787A117.469,117.469,0,0,1,76.926,45.81Z"/><path d="M112.55,89.53l0,0c-.957.343-.873,1-.824,1.189a2.07,2.07,0,0,0,2.122,1.153l.156.02.139-.072c.055-.03.1-.058.152-.087l.213-.131.023-.249c.032-.336.055-.665.07-1l.009-.2-.13-.151A1.733,1.733,0,0,0,112.55,89.53Z"/><path d="M74.481,69.992c-.015-.008-.015-.015-.031-.023-5.684,3.691-11.468,7.243-17.176,10.857q-6.452,4.08-12.92,8.153c-3.912,2.46-8,4.638-11.865,7.167-2.812,1.833-5.861,3.423-8.573,5.44,1.4,1.849,3.24,3.491,4.378,5.516C46.089,97.414,61.416,83.883,79.08,73.98A12.722,12.722,0,0,0,74.481,69.992Z"/><path d="M104.33,91.26a1.331,1.331,0,0,0-.976-.607,1.4,1.4,0,0,0-1.13.484l-.005,0c-.279.3-.594.631-.423,1.042a.825.825,0,0,0,.8.419.16.16,0,0,1,.1.042l.144.1h.171l.155-.024c.565-.163,1.11-.374,1.264-.816A.708.708,0,0,0,104.33,91.26Z"/><path d="M86.224,64.3c-.366-.527-.725-1.07-1.085-1.6-3.064,2.216-6.2,4.34-9.382,6.426a12.549,12.549,0,0,1,3.1,2.445c2.491-2.361,4.905-4.821,7.946-6.433C86.614,64.85,86.415,64.575,86.224,64.3Z"/><path d="M60.873,99.255c3.262-2.024,2.735-5.195,1.123-8-3.446,2.108-6.914,4.187-10.23,6.494C53.561,100.829,58.008,101.036,60.873,99.255Z"/><path d="M94.446,93.937c-3.378.91-6.831,1.284-10.269,1.956-3.7.726-7.343,1.8-11.018,2.652-6.1,1.421-12.393,4.592-18.673,4.752a.122.122,0,0,1-.054,0c.054.627.145,1.253.252,1.872a377.545,377.545,0,0,0,39.769-9.528C94.446,95.076,94.438,94.5,94.446,93.937Z"/><path d="M49.672,98.72a1.119,1.119,0,0,1-.137-.5A1.225,1.225,0,0,1,49.7,96.39c3.812-2.728,7.854-5.088,11.842-7.549a1.114,1.114,0,0,1,.627-.168,1.133,1.133,0,0,1,1.23.489A12.161,12.161,0,0,1,65.48,94.8c2.506-2.033,5.417-3.767,8.053-5.54,3.24-2.177,6.388-4.523,9.65-6.662a27.988,27.988,0,0,0-3.316-7.488C62.134,85.036,46.761,98.629,28.89,108.34a28.679,28.679,0,0,1,1.6,7.19c.007,0,.007.007.015.007,4.065-1.3,7.809-4.569,11.545-6.586,3.461-1.879,6.578-4.309,10.062-6.12-.007-.191-.015-.39-.015-.581a1.107,1.107,0,0,1,.26-.718A6.917,6.917,0,0,1,49.672,98.72Z"/><path d="M22.846,102.418c-.435.36-.863.734-1.268,1.124a1.189,1.189,0,0,1-.634.313c1.283,4.133,4.737,7.4,7.992,10.292a15.056,15.056,0,0,0-1.956-6.541C25.734,105.773,24.176,104.191,22.846,102.418Z"/><path d="M122.5,40.414c-1.507-4.643-5.232-9.529-11-9.354l-.683.021.227.645c.11.313.243.636.377.958l.15.363.388-.06a5.592,5.592,0,0,1,4.826,1.665c2.906,2.72,4.394,7.931,4.105,11.2a17.254,17.254,0,0,1-5.079,10.437c-.775.83-1.636,1.643-2.547,2.5-3.7,3.494-7.9,7.453-6.168,13.211l.127.427.439-.078c.16-.028.32-.049.488-.064l.418-.035.038-.417c.462-5.056,3.5-8.217,6.724-11.564a42.79,42.79,0,0,0,4.759-5.56A16.618,16.618,0,0,0,122.5,40.414Z"/><path d="M84.941,103.389c-3.293.5-6.617.84-9.9,1.4-5.4.932-10.751,2.391-16.259,2.544a.619.619,0,0,1-.505-.206.64.64,0,0,1-.374-.573,1.142,1.142,0,0,0-.168-.55c-.932.176-1.872.351-2.812.519.069.451.138.9.183,1.36,13.509,1.185,26.681-2.666,40.006-4.355-.107-.6-.191-1.215-.267-1.826C91.473,101.922,88.264,102.892,84.941,103.389Z"/><path d="M117.505,77.312c-.573-.008-1.208-.031-1.8-.084.512,5.188,1.108,10.353.474,15.571a1.7,1.7,0,0,1-.038.183.942.942,0,0,1-.8,1.208c-4.944.81-9.895,1.673-14.915,1.085a1.874,1.874,0,0,1-1.146-1.62v-10.7a1.006,1.006,0,0,1,.016-.153c-.7-.993-1.414-1.994-2.117-3,.023,3.981.092,7.526-.053,11.278-.153,4.125-.413,8.328.29,12.423,6.747.1,13.5.726,20.225-.023C116.909,94.778,117.443,86.045,117.505,77.312Z"/><path d="M14.159,105.406a23.556,23.556,0,0,1-3.538,1.192c1.444.749,2.995,1.291,4.5,1.918,2.827,1.176,5.646,2.406,8.45,3.652a19.534,19.534,0,0,1-4.928-8.015A29.339,29.339,0,0,0,14.159,105.406Z"/><path d="M30.12,94.954c4.164-2.713,8.527-5.1,12.729-7.74q6.269-3.942,12.523-7.9c9.535-6.036,19.307-11.889,28.468-18.5a16.348,16.348,0,0,0-3.484-3.706,3.973,3.973,0,0,1-.618-.97c-.2-.6-.375-1.215-.573-1.819a.886.886,0,0,1-.023-.512c-.222-.252-.444-.5-.642-.771C66.069,60.052,54.218,68.349,42.154,75.959c-7.939,5.012-15.885,10.025-23.869,14.96-3.438,2.117-6.938,4.669-10.628,6.48,4.431.664,8.45,2.819,12.76,4.11C23.335,98.873,26.834,97.1,30.12,94.954Z"/><path d="M84.482,48.324A14.063,14.063,0,0,1,82.649,44.9a18.429,18.429,0,0,0-4.531,2.957.455.455,0,0,1-.069.053A31.526,31.526,0,0,0,79.913,51.1,7.461,7.461,0,0,1,84.482,48.324Z"/><path d="M89.563,46.07c1.375-.054,1.238-2.117.81-3.316-.97.145-1.933.3-2.888.5.229.39.435.795.65,1.2C88.387,44.924,88.891,46.093,89.563,46.07Z"/><path d="M86.587,50.9l.946-.262-.768-.611-.325.344,0-.008.242-.393,0-.005-.231-.23-.3.117a.561.561,0,0,1-.185.044c-1.425.083-4.479.889-4.825,2.849l-.2,1.141.969-.636A17.178,17.178,0,0,1,86.587,50.9Z"/><path d="M17.521,102.953c-3.614-1.337-7.129-3.025-10.964-3.392.252,1.971.5,4.493,1.956,5.684.137.115.282.214.427.321a.817.817,0,0,1,.268-.091c2.124-.252,3.942-1.23,5.921-1.926A17.752,17.752,0,0,1,17.521,102.953Z"/><path d="M91.76,51.374l-.21.042a4.741,4.741,0,0,1-1.106.106l-.822-.016.364.737A19.475,19.475,0,0,0,91.108,54.2l.378.582.433-.544a3.53,3.53,0,0,0,.712-1.536.97.97,0,0,0-.684-1.2l-.3.4.286-.411Z"/><path d="M39.441,42.7c.772.955,3.79,5.853,5.387,4.7-.046-.107-.1-.214-.145-.321C43,43.059,38.4,37.329,39.143,32.706c.482-2.987,3.232-5.287,6.128-6.418-.183-.068-.367-.137-.55-.2a1.267,1.267,0,0,1-.2-.084c-3.514,1.245-7.128,2.743-9.688,5.2C30.044,35.808,36.6,39.208,39.441,42.7Z"/><path d="M91.947,42.532l-.168.023c.55,1.757.336,4.248-1.49,4.775-2.506.719-3.026-2.3-4.2-3.713-.008-.008-.008-.008-.008-.015-.451.122-.894.267-1.329.42a.819.819,0,0,1,.061.145,10.022,10.022,0,0,0,3.064,4.508c1.161.909,3.316,1.75,4.546.42C93.964,47.414,92.956,44.457,91.947,42.532Z"/><path d="M109.367,25.5c-1,.237-1.994.482-2.987.734a22.512,22.512,0,0,1,1.062,4.615,11.651,11.651,0,0,0,2.728-1.108C111.262,28.985,109.963,26.777,109.367,25.5Z"/><path d="M107.633,33.249l-.046.023c-.007.558-.038,1.108-.1,1.65.833.023,2.223.054,2.628-.435.207-.245-.359-1.231-.466-1.467-.092-.214-.183-.428-.267-.65A5.291,5.291,0,0,0,107.633,33.249Z"/></g></symbol>
<symbol id="feeds" viewBox="5 11 120 105"><g><path d="M43.772,29.973a1.288,1.288,0,0,1,.325.087.912.912,0,0,1,.571.1c12.194.024,24.04-3.449,36.052-5.146,11.14-1.57,22.161-3.814,33.286-5.471-2.213-.808-4.813-.761-7.422-.7-8.484.2-25.547-.1-25.547-.1-12.678,1.062-25.372,3.2-37.947,5.09-8.016,1.2-16.032,2.442-23.993,3.98,1.309-.008,2.609-.016,3.909-.008C30.087,27.84,36.787,29.053,43.772,29.973Z"/><path d="M79.9,80.408c-3.1,1.158-5.772.452-8.31-1.023-2.545,1.34-.4,6.05-.111,8.1.3,2.172-.158,4.622.642,6.7a17.53,17.53,0,0,0,7.858.262,9.3,9.3,0,0,1,.944-.65c-.111-2.363-.6-4.726-.484-7.088C80.53,84.65,80.982,82.256,79.9,80.408Z"/><path d="M15.846,30.211c-2.933.023-6.58-.571-9.213.943-.341,5.178,3.219,9.388,5.931,13.535,2.077,3.179,3.568,7.175,6.565,9.649.087-3.719.428-7.429.84-11.116.563-4.932.373-9.586,3.576-13.027C20.976,30.187,18.415,30.2,15.846,30.211Z"/><path d="M76.494,66.715c5.82-2.862,11.156-6.557,16.9-9.554,6.3-3.283,12.852-6.526,18.886-10.26,4.25-2.625,4.551-6.121,4.773-10.538-2.474.92-4.9,2.086-7.278,3.061Q100.34,43.3,90.949,47.273q-9.087,3.819-18.15,7.691c-3.155,1.348-7.231,3.941-10.593,4.536a52.476,52.476,0,0,1,.135,12.163,17.052,17.052,0,0,1-.468,2.767,1.072,1.072,0,0,1,.4-.1c1.911-1.11,3.774-2.49,5.479-3.362C70.643,69.506,73.584,68.142,76.494,66.715Z"/><path d="M60.954,59.167a1.413,1.413,0,0,1-.286-.46c-.031-.04-.055-.079-.087-.119-1.284-2.339-2.442-4.742-3.663-7.112-.024,5.09-.143,10.141-.595,15.231-.222,2.561,0,4.868-3.187,4.615a109.545,109.545,0,0,1-16.4-2.7c-2.18-.523-7.564-.769-8.983-2.87-1.174-1.745-.286-4.662-.318-6.732-.047-3.195-.1-6.406.04-9.6.064-1.4-.047-4.924.69-7.469a.637.637,0,0,1-.032-.309c.476-3.37,3.687-2.664,6.272-2.3,5.495.777,11.116,1.348,16.563,2.5-2.386-3.266-4.947-6.39-7.5-9.53-5.479-.73-10.887-1.84-16.413-2.054a1.229,1.229,0,0,1-.325.317c-3.647,2.419-3.616,5.749-4.06,9.769-.372,3.377-.824,6.755-1.046,10.149a70.64,70.64,0,0,0,.023,9.942c.23,2.91-.055,7.477,2.316,9.666,3.6,3.338,8.872,3.7,13.479,4.487,6.628,1.118,13.693,2.331,20.432,1.475a8.881,8.881,0,0,0,2.078-.563c1.768-1.879,1.387-6.089,1.308-8.222C61.152,64.558,61.271,61.863,60.954,59.167Z"/><path d="M82.687,75.12c1.649-3.315,1.625-7.065,2.323-10.649-4.472,2.5-8.952,4.995-13.566,7.3-1.214.6-2.411,1.244-3.592,1.887C72.125,77.126,78.992,82.517,82.687,75.12ZM80.633,74.8a3.027,3.027,0,0,1-3.988,1.555,2.845,2.845,0,0,1-1.443-3.9.61.61,0,0,1,.1-.238c.864-1.229,3.068-2.347,4.464-1.277A3.153,3.153,0,0,1,80.633,74.8Z"/><path d="M79.166,71.972a2.329,2.329,0,0,0-2.838.848c-1.269,2.323,2.561,3.7,3.29,1.348C79.824,73.478,79.88,72.416,79.166,71.972Z"/><path d="M30.428,65.914a98.365,98.365,0,0,0,10.1,2A14.249,14.249,0,0,1,29.111,52.356c.484-5.447,4.393-10.522,9.666-11.3-2.775-.586-7.358-1.53-8.952-.127-1.609,2.442-1.237,10.99-1.245,12.52C28.572,55.718,27.6,65.161,30.428,65.914Z"/><path d="M44.755,52.673a2.125,2.125,0,0,0,2.26,1.094.485.485,0,0,1,.4-.071c.024-.008.048-.008.072-.016a4.754,4.754,0,0,0,1.926-1.253,5.937,5.937,0,0,0-.38-.634,16.856,16.856,0,0,0-1.887-2.26C46.3,50.057,44.359,51.484,44.755,52.673Z"/><path d="M38.951,58.057c1.261,1.332,3.941,3.171,5.836,1.958,1.427-.92,3.37-3.306,2.244-5.058a3.462,3.462,0,0,1-3.2-1.459,2.9,2.9,0,0,1,.643-3.227C40.275,47.821,35.716,54.631,38.951,58.057Z"/><path d="M78.08,26.611c-10.744,1.736-21.408,4.583-32.334,4.741,2.942,3.592,5.939,7.168,8.547,11.014,3.164,4.662,5.456,9.72,8.151,14.652,3.545-.9,7.636-3.457,10.823-4.821q8.9-3.794,17.816-7.54c6.217-2.617,12.433-5.225,18.673-7.778a85.523,85.523,0,0,1,9.364-3.695v-.095c.523-3.2.571-7.16-1.071-10.078a7.456,7.456,0,0,0-2.251-2.537c-6.24.912-12.393,2.252-18.609,3.338C90.845,24.914,84.439,25.58,78.08,26.611Z"/><path d="M49.956,53.569A5.786,5.786,0,0,1,48.22,54.7c.959,2.117-.595,4.646-2.347,6.018-2.347,1.839-6.1.277-7.762-1.816-3.7-4.646,1.712-13.328,7.207-9.491a9.174,9.174,0,0,1,.944-.713c-2.45-2.157-5.685-3.735-8.468-1.975-3.529,2.236-4.258,6.55-2.934,10.276,1.49,4.218,4.408,6.058,8.928,6.169A7.153,7.153,0,0,0,49.956,53.569Z"/><path d="M55.3,65.28c.167-1.76.294-3.521.357-5.289-.269,2.276-1.015,4.5-2.838,5.741a16.382,16.382,0,0,1-10.221,2.5c2.9.452,5.8.9,8.683,1.531C54.991,70.56,55.063,67.825,55.3,65.28Z"/><path d="M51.407,65.264c3.243-2.212,3.33-6.153,3.132-9.657-.69-5.733-5.5-11.5-11.179-12.948A10.408,10.408,0,0,0,30.285,53.331c.285,6.216,3.362,12.218,10,13.368C43.716,67.294,48.379,67.333,51.407,65.264ZM33.25,55.424c-.555-4.028.991-10.014,6-10.394,4.98-.381,11.236,3.877,12.155,9.031.952,5.272-2.275,9.792-7.619,10.291C38.206,64.21,34.035,61.149,33.25,55.424Z"/><path d="M55.737,55.71c.015-2.149.007-4.306,0-6.454-.849-1.562-1.745-3.1-2.744-4.575-.325-.476-.666-.936-.991-1.4-2.307-.515-4.646-.9-6.985-1.244A17.35,17.35,0,0,1,55.729,55.607.443.443,0,0,1,55.737,55.71Z"/><path d="M99.068,75.167c-.643.19-.547.833-.254,1.4.484-.254.967-.5,1.451-.73A1,1,0,0,0,99.068,75.167Z"/><path d="M86.461,97.582c-2.553,2.561-6.026,3.449-9.784,3.219-3.529-.214-7.842-.452-10.8-2.632a5.144,5.144,0,0,0-.072.808,38.724,38.724,0,0,0,.9,7.081c3.608,3,10.434,3.83,14.882,2.87,4.266-.927,6.93-3.758,5.812-8.254A23.951,23.951,0,0,0,86.461,97.582Z"/><path d="M114.505,103.18c-.563-.024-.888.38-.713.983.118.42.658,1.007,1.117.848.3-.1.4-.634.357-1A.926.926,0,0,0,114.505,103.18Z"/><path d="M66.29,96.948c2.371,1.942,6.161,2.4,9.078,2.585,3.957.245,7.826-.088,10.546-3.077A6.65,6.65,0,0,0,83.305,93.9c0,.087.008.175.016.262a1.527,1.527,0,0,1-.016.2,1.166,1.166,0,0,1-.579,1.134,9.239,9.239,0,0,0-1.165.721,1.011,1.011,0,0,1-.706.484h-.008a1.229,1.229,0,0,1-.642.127,20.878,20.878,0,0,1-9.094-.42c-.048-.016-.08-.032-.119-.048a.966.966,0,0,1-.793-.6,7.858,7.858,0,0,1-.484-1.324A6.51,6.51,0,0,0,66.29,96.948Z"/><path d="M99.06,101.665c1-.309.959-1.657.753-2.68-.484.2-.959.405-1.443.6C98.275,100.428,98.291,101.9,99.06,101.665Z"/><path d="M121.649,79.734c.032-1.744.27-3.639-1.8-4.289-.135-.04-.269-.072-.4-.111,1.3,3.06.515,7.389.428,10.727-.175,7.1.864,15.1-.88,22.074,1.157-.729,2.2-1.522,2.117-3.171-.048-.944-.119-1.871-.246-2.807a39.586,39.586,0,0,1-.373-7.184C120.745,89.9,121.546,84.817,121.649,79.734Z"/><path d="M115.3,77.807c-.563-.023-.888.381-.714.984.119.42.658,1.007,1.118.848.3-.1.405-.634.357-1A.928.928,0,0,0,115.3,77.807Z"/><path d="M115.98,74.454c-1.475-.27-2.958-.555-4.456-.809a3.557,3.557,0,0,1,.935,2.378.966.966,0,0,1-.023.151.673.673,0,0,1-.555.952c-2.569.356-5.3.111-7.652,1.371-.341.183-.666.373-1,.563a1.3,1.3,0,0,1,.214.095,29.852,29.852,0,0,0,9.23,3.553,1.042,1.042,0,0,1,.848,1.157,1.647,1.647,0,0,1,.024.286c-.064,4.075-.825,8.111-.7,12.194a1.126,1.126,0,0,1-1.538,1.086,1.253,1.253,0,0,1-.547-.158c-2.871-1.649-6.843,0-9.84,1.253.333,1.688.2,4.448-1.99,4.345-1.364-.056-1.832-1.459-1.816-2.744-.277.119-.547.246-.824.365a1.328,1.328,0,0,1,.007.246c-.134,2.109.619,2.989,2.649,3.861a31.286,31.286,0,0,0,7.009,2.062c3.893.681,7.81,1.229,11.7,1.942v-.032c1.641-5.78.777-12.21.92-18.165.079-2.9.174-5.8.19-8.7.008-2.418.412-5.034-.841-6.818C117.288,74.723,116.638,74.573,115.98,74.454Zm-1.055,31.755a2.341,2.341,0,0,1-2.347-2.086,1.842,1.842,0,0,1,2.03-2.133c.024,0,.04.016.064.024a.317.317,0,0,1,.087,0,2.14,2.14,0,0,1,1.7,2.165A1.872,1.872,0,0,1,114.925,106.209Zm.793-25.373a2.34,2.34,0,0,1-2.347-2.085,1.841,1.841,0,0,1,2.03-2.133c.024,0,.04.016.064.024a.317.317,0,0,1,.087,0,2.138,2.138,0,0,1,1.7,2.165A1.87,1.87,0,0,1,115.718,80.836Z"/><path d="M110.469,94.569c.08-3.211.555-6.391.666-9.6-4.146.864-8.024,3.283-11.893,4.972-3.869,1.673-7.723,3.068-10.989,5.772a13.721,13.721,0,0,1,1.831,5.027,108.3,108.3,0,0,1,11.894-5.1C104.856,94.68,107.663,93.689,110.469,94.569Z"/><path d="M109.305,76.013c.48-.05.969-.1,1.472-.161a.25.25,0,0,0,.214-.3,2.049,2.049,0,0,0-.385-.819.277.277,0,0,0-.2-.1A23.694,23.694,0,0,0,99.07,78.011,29.48,29.48,0,0,0,93.4,82.528c-.6.57-1.217,1.149-1.869,1.729-1.091.972-2.919,1.817-4.15,1.482a1.837,1.837,0,0,1-1.265-1.332c-1.078-3.369,4.025-8.24,6.2-10.32L92.406,74c.5-.476,1.04-.978,1.609-1.5,4.872-4.5,11.544-10.668,8.178-17.4a.251.251,0,0,0-.345-.107c-.411.23-.831.458-1.242.68A.248.248,0,0,0,100.5,56c2.523,5.594-3.1,11.192-8.06,16.13a41.54,41.54,0,0,0-4.948,5.48c-.742,1.115-3.649,7.1-2.067,9.325a2.005,2.005,0,0,0,1.75.8,5.019,5.019,0,0,0,1.246-.178c2.762-.708,4.873-2.527,6.915-4.287.271-.233.54-.465.812-.695l.834-.71a28.146,28.146,0,0,1,6.51-4.573A18.179,18.179,0,0,1,109.305,76.013Z"/><path d="M87.6,94.72c3.33-2.68,7.159-4.044,11.045-5.812,3.393-1.546,6.89-3.576,10.521-4.662a29.267,29.267,0,0,1-6.922-3.029c-.024-.024-.047-.04-.071-.064a4.051,4.051,0,0,0-1.507-.4c-.008,0-.015-.008-.023-.008-.5.365-1,.737-1.483,1.142-2.339,1.935-4.615,4.408-7.326,5.828a11.523,11.523,0,0,1-4.139,1.308.706.706,0,0,1-.119.206,9.194,9.194,0,0,1-3.3,2.49A10.525,10.525,0,0,1,87.6,94.72Z"/><path d="M68.561,78.822a.248.248,0,0,0,.206.162H68.8A.252.252,0,0,0,69,78.873a3.539,3.539,0,0,1,.639-.711.258.258,0,0,0,.085-.2.251.251,0,0,0-.1-.19c-.979-.72-1.969-1.531-2.927-2.315l-.926-.755a.247.247,0,0,0-.276-.025c-.26.141-.516.29-.77.439l-.315.182a.253.253,0,0,0-.125.211.25.25,0,0,0,.114.216c1.3.837,2.576,1.754,3.809,2.639A1,1,0,0,1,68.561,78.822Z"/><path d="M101.312,75.35a24.512,24.512,0,0,1,7.825-2.07c-.912-.119-1.823-.23-2.727-.285-1.808-.127-9.015-1.38-9.681,1.276a20.52,20.52,0,0,0-.444,3.743c.491-.3.991-.595,1.49-.88a2.44,2.44,0,0,1-.285-2A1.854,1.854,0,0,1,98.822,74,2.165,2.165,0,0,1,101.312,75.35Z"/></g></symbol>
<symbol id="hosts" viewBox="4 5 120 120"><g><path d="M57.388,63.887a62.769,62.769,0,0,1-5.754,3.307,1.162,1.162,0,0,1-.553.12c-1.437,4.609-7.138,7.631-11.778,7.355-5.589-.33-10.961-2.559-13.856-7.625a24.135,24.135,0,0,1-2.874-13.438c.135-2.6.412-5.911,2.215-7.9a17.788,17.788,0,0,0-3.666-.846c-2.3,6.113-1.736,14.86,1.085,20.614,2.716,5.552,5.29,12.57,12.016,14.119a24.09,24.09,0,0,0,15.2-1.818,29.4,29.4,0,0,1,3.225-2.043C56.4,72.85,60.284,68.032,57.388,63.887Z"/><path d="M44.062,59.12a16.822,16.822,0,0,0-1.519-1.952,38.134,38.134,0,0,0-6.18-5.35.865.865,0,0,1-.142.06c-3.15,1.017-2.2,5.192-.816,7.317C37.426,62.308,42.259,62.951,44.062,59.12Z"/><path d="M76.55,67.89a11.659,11.659,0,0,0-.441-2.686c-3.667,1.975-7.243,4.107-10.827,6.24-2.686,1.593-5.372,3.262-8.163,4.684-.98.5-1.976.95-2.956,1.429,2.185,1.347,3.726,1.384,6.315-.292,1.8-1.16,3.6-2.29,5.477-3.3A116.571,116.571,0,0,0,76.55,67.89Z"/><path d="M26.614,46.4c-4.273,2.7-2.3,14.478-.554,17.979,2.073,4.168,5.425,7.251,10.123,8.111,5.066.928,12.413-.576,13.416-6.681-1.04-1.519-2.5-2.612-3.659-4.048-.254-.322-.5-.651-.733-.988-2.521,3.906-8.6,3.569-11.111-.292-1.938-2.985-2.806-7.826.524-9.816-.561-.352-1.123-.689-1.691-1.011A64.364,64.364,0,0,0,26.614,46.4Z"/><path d="M107.13,91.1c2.357-.568,5.552-1.833,5.4-4.8-.09-1.735-.913-3.247-1.31-4.893-3.748.067-7.437,1.1-11.156,1.556a98.522,98.522,0,0,0-11.38,1.789,18.865,18.865,0,0,0,2.1,2.282A18.262,18.262,0,0,0,107.13,91.1Z"/><path d="M73.789,76.771c.165-.86-.224-2-1.317-1.661-.591.18-1.7,1.01-1.414,1.766C71.455,77.931,73.505,77.849,73.789,76.771Z"/><path d="M34.059,47.718a38.765,38.765,0,0,1,10.8,8.754c1.422,1.758,2.484,3.823,4.161,5.365a14.743,14.743,0,0,1,2.536,2.873c3.457-1.856,6.569-4.295,10.116-5.971,3.793-1.8,7.781-3.143,11.567-4.976,4.191-2.035,8.059-4.474,12.062-6.831,3.008-1.773,6.509-2.671,9.45-4.5C92.091,33.172,89.8,20.789,77.59,20.348c-5.23-.187-9.929,1.75-14.717,3.6-5.35,2.065-10.745,4-16.1,6.045-5.814,2.222-11.553,4.677-17.4,6.809-5.118,1.871-10.453,3.434-15.271,6.008-.18.1-.367.2-.547.3a24.809,24.809,0,0,1,7.834-.442C25.88,43.146,30.228,45.465,34.059,47.718Z"/><path d="M60.673,71.556c4.265-2.5,8.462-5.118,12.794-7.5,5.657-3.1,21.115-8.418,18.085-17.509a42.861,42.861,0,0,0-6.166,2.963A100.588,100.588,0,0,1,74.365,55.7C70.25,57.632,65.7,58.986,61.75,61.23c-.838.472-1.668.973-2.484,1.482,2.11,3.24,1.354,6.861-.613,9.944C59.333,72.3,60.014,71.938,60.673,71.556Z"/><path d="M8.267,47.067a7.286,7.286,0,0,0-1.541,7.6c1.332,3.92,3.891,7.212,6.532,10.347,1.87-.838,3.367-2.312,5.342-2.992.023-.008.045-.008.075-.015-1.556-5.62-1.766-11.89.105-17.247A29.83,29.83,0,0,0,8.267,47.067Z"/><path d="M75.652,81.919a12.129,12.129,0,0,1-7.751-.4h-.008c-3.165.494-4.34,2.514-4.175,5.56.127,2.469.322,4.885.688,7.325,4.677.015,9.308.232,13.992.089.15-4.287,1.055-9.562-1.212-13.266A4.837,4.837,0,0,1,75.652,81.919Z"/><path d="M119.633,91.114c-.172-7.385-.382-14.762-.4-22.147H103.494a96.579,96.579,0,0,0,.179,11.119,49.551,49.551,0,0,1,7.385-.913,10.907,10.907,0,0,1,.831-2.2,2.343,2.343,0,0,1,1.878-1.115c1.384-.015,2.985,1.16,2.244,2.709a6.054,6.054,0,0,1,2.252.568,1.07,1.07,0,0,1,.711,1.055c-.007,5.986,1.138,13.214-1.04,18.908a1.1,1.1,0,0,1-.815.711,1.086,1.086,0,0,1-.943.232c-3.644-.711-7.318-1.25-10.977-1.863,1.258,3.591,2.642,8.5,5.874,9.54C118.81,105.548,119.8,97.976,119.633,91.114Z"/><path d="M117.134,85.712c.194-1.144.224-2.386.4-3.531.209-1.317-.3-1.923-1.923-1.8a28.01,28.01,0,0,0,1.04,3.651c.179.718.037,1.436.254,2.14a.437.437,0,0,0,.135,0C117.074,86.019,117.1,85.862,117.134,85.712Z"/><path d="M113.146,93.12a15.031,15.031,0,0,1-6.749,2.993c3.209.531,6.419,1.025,9.614,1.623a27.779,27.779,0,0,0,1-9.121A13.245,13.245,0,0,1,113.146,93.12Z"/><path d="M121.705,68.967h-1.354c.06,9.2,1.2,18.765.322,27.894a13.565,13.565,0,0,1-6.338,10.677c5.515-1.975,7.325-5.948,7.146-11.523C121.2,86.969,121.3,77.991,121.705,68.967Z"/><path d="M115.57,87.284c.546-2.245-.3-4.123-1.145-6.151a2.673,2.673,0,0,1-.247-2.334c.239-.621.965-1.377-.187-1.572-1.938-.321-1.2,2.694-1.085,3.577a12.67,12.67,0,0,0,.7,2.185,7.99,7.99,0,0,1,.681,2.656,5.838,5.838,0,0,1-1.384,4.444c-2.963,3.083-8.036,3.517-12.061,3.106-5.574-.562-10.326-2.9-13.655-7.565-.2-.284-.382-.561-.569-.846a1.234,1.234,0,0,1-.3-.448C82.251,77.863,81.5,70.658,79.88,63.258c-.24.12-.479.24-.726.359-.038,6.457,3.255,13.708,5.634,19.611,2.349,5.859,6.053,10.019,12.525,10.977,3.3.493,7,.86,10.236-.2C110.564,93,114.754,90.688,115.57,87.284Z"/><path d="M66.875,96.674c.225,2.738,1.856,5.828,4.976,5.791,3.015-.045,6.959-2.305,5.993-5.709C74.171,96.846,70.534,96.734,66.875,96.674Z"/><path d="M74.642,79.861a3.814,3.814,0,0,0,1.654-.636,1.377,1.377,0,0,1,.261-.471.652.652,0,0,0,.038-.187,6.148,6.148,0,0,0-.344-2.23,8.957,8.957,0,0,0-2.469-4.07c-2.208,1.272-4.46,2.469-6.689,3.7C66.726,80.183,71.4,80.714,74.642,79.861Zm-1.915-5.926c1.743-.03,2.439,1.616,2.139,3.135-.591,2.29-4.833,2.185-4.968-.3A3.073,3.073,0,0,1,72.727,73.935Z"/><path d="M83.838,85.57a1.32,1.32,0,0,1-.255.045c-.927.082-1.855.2-2.783.254a79.27,79.27,0,0,1-.157,8.627c3.748-.015,7.609-.1,11.463-.037C88.349,92.678,85.731,89.663,83.838,85.57Z"/></g></symbol>
<symbol id="streams" viewBox="0 0 100 100"><g transform="translate(0,-952.362)"><path d="m 59.562,962.379 c -1.398,0.077 -2.832,0.418 -4.218,0.937 l -31.437,11.533 c 7.438,1.395 13.093,8.008 13.093,15.971 0,8.973 -7.175,16.284 -16,16.284 -2.912,0 -5.645,-0.768 -8,-2.156 l 0,23.441 c 0.03,2.407 0.487,3.612 1.25,4.407 0.748,0.779 2.01,1.262 3.906,1.75 7.567,1.437 15.25,2.494 22.843,3.875 l 0,-39.475 c 0,-2.005 1.218,-4.147 3.062,-6.532 6.429,-8.22 15.298,-13.905 25.937,-16.721 l 0,-2.156 c 0,-3.264 -1.433,-6.793 -3.937,-8.97 -1.915,-1.729 -4.168,-2.315 -6.5,-2.188 z m -38.562,14.221 c -7.743,0 -14,6.346 -14,14.221 0,7.874 6.256,14.252 14,14.252 7.743,0 14,-6.378 14,-14.252 0,-7.874 -6.256,-14.221 -14,-14.221 z m 49,1.125 c -8.76,1.734 -16.889,7.357 -24.375,15.94 -1.718,2.222 -2.625,4.236 -2.625,5.282 l 0,38.913 8.218,-4.907 -2.406,-0.468 c -0.448,-0.087 -0.806,-0.536 -0.812,-1 l 0,-9.126 -2,0 0,-14.252 2,0 0,-11.189 c -0.004,-0.492 0.394,-0.939 0.875,-1 0.457,0.07 0.993,0.132 1.468,0.25 2.045,-2.575 4.764,-5.358 7.406,-7.532 2.003,-1.64 4.397,-3.509 7.25,-3.906 0.523,10e-5 0.999,0.467 1,1 l 0,13.314 4,0.75 z m -49,0.906 c 6.627,0 12,5.45 12,12.189 0,6.739 -5.372,12.189 -12,12.189 -6.627,0 -12,-5.45 -12,-12.189 0,-6.739 5.372,-12.189 12,-12.189 z m 0,1.312 c -6.051,0 -11,4.949 -11,11.002 0,6.052 4.948,11.001 11,11.001 6.051,0 11,-4.949 11,-11.001 0,-6.052 -4.948,-11.002 -11,-11.002 z m 29,18.222 0,32.505 c 5.979,1.387 27.908,7.716 43,11.689 l 0,-35.443 c -14.327,-3.18 -30.932,-6.853 -43,-8.751 z"/></g>></symbol>
<symbol id="import" viewBox="0 -4 100 100"><g><path d="m79.395 23.906c-0.015-2.535-1.261-4.906-3.343-6.355l-14.164-9.835c-1.968-1.566-4.812-1.445-7.183-1.406v15.613l0.003 0.003c-0.003 0.859-0.699 1.558-1.562 1.558h-21.859c-0.863 0-1.558-0.699-1.562-1.558v-15.617c-2.308-0.378-4.671 0.261-6.468 1.761-1.8 1.5-2.859 3.707-2.902 6.046v48.406c0.003 4.312 3.5 7.804 7.808 7.808h1.562v-26.547c0.003-0.863 0.699-1.558 1.562-1.562h37.473c0.863 0.003 1.562 0.699 1.562 1.562v26.547h1.515c4.328-0.019 7.824-3.543 7.808-7.871z"/><path fill="#8a94a6" d="m51.582 6.308h-18.738v14.055h18.738zm-3.121 8.589c-0.011 0.851-0.707 1.535-1.562 1.535-0.851 0-1.546-0.683-1.562-1.535v-3.125c0.003-0.859 0.703-1.554 1.562-1.554 0.859 0 1.558 0.695 1.562 1.554z"/><path fill="#f2c14e" d="m62.516 76.578h-4.687v-3.125h-15.613v3.121h-4.964c-0.613 0.011-1.164 0.378-1.41 0.937-0.246 0.558-0.148 1.21 0.253 1.671l12.773 14.055c0.296 0.328 0.722 0.515 1.164 0.511 0.445-0.003 0.867-0.195 1.16-0.527l12.492-14.055c0.394-0.464 0.488-1.113 0.234-1.668-0.25-0.55-0.796-0.914-1.402-0.921z"/><path fill="#d4d6b6" d="m32.844 70.332h34.355v-24.984h-34.355zm4.687-20.301h12.492c0.851 0.011 1.535 0.707 1.535 1.562 0 0.851-0.683 1.546-1.535 1.558h-12.492c-0.855-0.011-1.539-0.707-1.539-1.558 0-0.855 0.683-1.55 1.539-1.562zm0 6.246h24.984c0.851 0.011 1.535 0.707 1.535 1.562 0 0.851-0.683 1.546-1.535 1.558h-24.984c-0.855-0.011-1.539-0.707-1.539-1.558 0-0.855 0.683-1.55 1.539-1.562zm0 6.246h24.984c0.851 0.011 1.535 0.707 1.535 1.562 0 0.851-0.683 1.546-1.535 1.558h-24.984c-0.855-0.011-1.539-0.707-1.539-1.558 0-0.855 0.683-1.55 1.539-1.562z"/></g></symbol>
<symbol id="fingerprints" viewBox="-1 -1 50 50"><g transform="matrix(1,0,0,1,-216,-432)"><g transform="matrix(1.5,0,0,1.5,0,0)"><g transform="matrix(0.668,0,0,0.661,-1.737,1.827)"><path d="M241.007,455.901C240.365,462.512 239.261,467.018 235.37,470.218C234.943,470.569 234.879,471.205 235.226,471.637C235.574,472.068 236.202,472.134 236.63,471.782C240.91,468.262 242.287,463.371 242.993,456.099C243.047,455.545 242.645,455.051 242.097,454.996C241.549,454.942 241.061,455.348 241.007,455.901Z"/></g><g transform="matrix(0.668,0,0,0.661,-1.737,1.827)"><path d="M239.171,474.872C244.222,470.717 246.141,465.068 246.974,456.485C247.241,453.735 245.231,451.282 242.482,451.015C239.735,450.748 237.292,452.768 237.026,455.515C236.941,456.392 236.852,457.228 236.75,458.024C236.679,458.576 237.065,459.082 237.611,459.154C238.157,459.225 238.658,458.835 238.729,458.283C238.833,457.467 238.924,456.611 239.012,455.712C239.172,454.065 240.644,452.863 242.291,453.023C243.936,453.182 245.148,454.643 244.988,456.288C244.22,464.207 242.572,469.474 237.911,473.307C237.484,473.658 237.419,474.294 237.767,474.726C238.114,475.158 238.743,475.223 239.171,474.872ZM236.256,460.957C235.682,463.525 234.745,465.553 232.829,467.128C232.402,467.48 232.338,468.115 232.685,468.547C233.033,468.979 233.662,469.044 234.089,468.693C236.36,466.825 237.522,464.448 238.202,461.401C238.323,460.858 237.985,460.318 237.448,460.195C236.911,460.073 236.377,460.414 236.256,460.957Z"/></g><g transform="matrix(0.668,0,0,0.661,-1.737,1.827)"><path d="M244.764,474.94C245.189,474.428 245.589,473.899 245.964,473.352C246.277,472.895 246.165,472.266 245.712,471.949C245.26,471.632 244.638,471.746 244.324,472.203C243.984,472.699 243.622,473.178 243.236,473.641C242.882,474.068 242.937,474.704 243.358,475.062C243.779,475.421 244.409,475.366 244.764,474.94ZM247.652,470.439C249.427,466.781 250.422,462.366 250.955,456.871C251.436,451.925 247.815,447.514 242.868,447.033C237.924,446.554 233.525,450.184 233.045,455.129C232.856,457.071 232.728,458.772 232.399,460.242C232.105,461.555 231.653,462.671 230.783,463.581C230.4,463.982 230.411,464.621 230.807,465.008C231.203,465.394 231.835,465.384 232.217,464.983C234.352,462.751 234.617,459.582 235.03,455.326C235.404,451.481 238.833,448.668 242.678,449.041C246.52,449.414 249.343,452.832 248.97,456.674C248.464,461.887 247.544,466.08 245.86,469.55C245.618,470.05 245.822,470.655 246.316,470.9C246.811,471.145 247.409,470.939 247.652,470.439Z"/></g><g transform="matrix(0.668,0,0,0.661,-1.737,1.827)"><path d="M251.127,472.452C253.16,468.357 254.338,463.421 254.937,457.258C255.63,450.114 250.399,443.746 243.255,443.052C236.113,442.359 229.757,447.6 229.063,454.742C228.91,456.316 228.807,457.721 228.578,458.961C228.477,459.508 228.835,460.036 229.376,460.138C229.917,460.24 230.439,459.879 230.54,459.331C230.778,458.041 230.89,456.578 231.049,454.939C231.636,448.897 237.022,444.474 243.064,445.06C249.104,445.646 253.537,451.021 252.951,457.061C252.381,462.935 251.281,467.644 249.344,471.548C249.097,472.045 249.296,472.652 249.788,472.901C250.28,473.151 250.88,472.95 251.127,472.452Z"/></g><g transform="matrix(0.668,0,0,0.661,-1.737,1.827)"><path d="M257.541,466.237C258.162,463.635 258.613,460.786 258.918,457.644C259.825,448.303 252.983,439.978 243.641,439.071C237.111,438.437 231.081,441.597 227.736,446.748C227.434,447.213 227.562,447.839 228.022,448.144C228.483,448.45 229.102,448.32 229.404,447.855C232.358,443.306 237.684,440.519 243.451,441.079C251.688,441.878 257.732,449.21 256.932,457.447C256.637,460.488 256.202,463.246 255.601,465.763C255.472,466.304 255.802,466.85 256.337,466.98C256.872,467.111 257.412,466.778 257.541,466.237ZM225.281,452.927C225.196,453.396 225.129,453.873 225.082,454.356C225.082,454.356 225.082,454.356 225.082,454.356C225.028,454.91 225.429,455.404 225.977,455.458C226.525,455.512 227.014,455.107 227.068,454.553C227.068,454.553 227.068,454.553 227.068,454.553C227.109,454.127 227.168,453.707 227.243,453.294C227.343,452.746 226.985,452.22 226.443,452.119C225.902,452.018 225.381,452.38 225.281,452.927Z"/></g><g transform="matrix(0.666,0,0,0.666,140.709,279.333)"><circle cx="14" cy="30" r="1"/></g></g></g></symbol>
<symbol id="tips" viewBox="0 0 100 100"><g><path d="M41.262,23.026l0.176-2.875l0.037-0.637l0.051-0.938c0.413-2.6-0.913-4.288-2.988-5.538c-2.049-1.25-4.3-1.675-6.675-1.375 c-3.6,0.462-5.613,1.988-6.438,4.962l-0.274,1.3l-0.012,0.062l-0.751,3.638c1.951-0.8,4.225-1.213,6.663-1.213 C34.751,20.413,38.401,21.364,41.262,23.026z"/><path d="M58.525,19.514l0.037,0.637l0.174,2.875c2.863-1.663,6.514-2.613,10.214-2.613c2.438,0,4.712,0.413,6.661,1.213 l-0.748-3.638l-0.014-0.062l-0.274-1.3c-0.825-2.975-2.837-4.5-6.438-4.962c-2.373-0.3-4.623,0.125-6.675,1.375 c-2.075,1.25-3.399,2.938-2.985,5.538L58.525,19.514z"/><path d="M40.95,44.576c1.663,1.062,2.7,1.95,3.451,2.975c1.799-0.099,3.7-0.262,5.587-0.274H50h0.012 c1.888,0.012,3.788,0.175,5.587,0.274c0.75-1.024,1.787-1.912,3.449-2.975c3.826-2.425,9.188-3.825,14.737-3.825 c3.601,0,6.963,0.613,9.862,1.725c-0.426-3.5-1.024-6.987-1.299-10.5c-0.312-4.175-2.588-6.875-6.227-8.75 c-0.062-0.037-0.124-0.062-0.2-0.087v-0.013c-4.938-2.425-12.323-1.75-17.1,1.313c-0.5,0.312-0.976,0.662-1.413,1.038 c-0.962,0.812-1.637,1.575-2.1,2.45c-0.176,0.337-0.514,0.55-0.899,0.512c-1.463-0.162-2.938-0.312-4.413-0.325 c-1.475,0.012-2.951,0.163-4.412,0.325c-0.388,0.038-0.727-0.174-0.901-0.512c-0.463-0.875-1.138-1.638-2.1-2.45 c-0.437-0.375-0.913-0.725-1.412-1.038c-4.775-3.062-12.163-3.738-17.101-1.313v0.013c-0.074,0.025-0.137,0.05-0.2,0.087 c-3.636,1.875-5.912,4.575-6.224,8.75c-0.274,3.513-0.875,7-1.3,10.5c2.9-1.112,6.262-1.725,9.863-1.725 C31.763,40.75,37.125,42.151,40.95,44.576z"/><path d="M94.574,69.675c-0.387-1.724-0.699-3.448-1.037-5.187c-0.188-0.987-0.387-1.963-0.575-2.95 c-0.024-0.163-0.062-0.325-0.087-0.487c-0.125-0.613-0.236-1.225-0.363-1.837c-0.412-2.176-0.838-4.351-1.273-6.526 c-0.288-3.023-1.899-5.273-4.525-6.986c-0.773-0.525-1.648-0.988-2.6-1.413c-7.149-3.187-17.838-2.475-24.237,1.601 c-1.388,0.875-2.351,1.662-3.024,2.574c-0.338,0.476-0.9,0.713-1.488,0.663c-1.786-0.15-3.574-0.288-5.361-0.3 c-1.787,0.013-3.576,0.15-5.363,0.3c-0.587,0.05-1.149-0.188-1.486-0.663c-0.675-0.913-1.638-1.7-3.026-2.574 c-6.399-4.076-17.087-4.788-24.237-1.601c-0.95,0.425-1.825,0.888-2.6,1.413c-2.625,1.712-4.237,3.962-4.525,6.986 c-0.437,2.177-0.862,4.352-1.274,6.526c-0.126,0.612-0.237,1.224-0.363,1.837c-0.025,0.162-0.062,0.324-0.088,0.487 c-0.187,0.987-0.387,1.963-0.575,2.95c-0.337,1.736-0.649,3.463-1.038,5.187C4,75.861,6.214,80.688,11.2,84.201 c6.562,4.636,13.863,5.349,21.338,2.688c7.787-2.787,11.012-7.25,11.324-15.101c2.063,0.675,4.1,1.022,6.138,1.037 c2.038-0.015,4.074-0.362,6.139-1.037c0.312,7.851,3.536,12.312,11.324,15.101c7.475,2.661,14.773,1.948,21.337-2.688 C93.787,80.688,96,75.861,94.574,69.675z M34.988,78.588c-0.813,0.688-1.725,1.299-2.662,1.775 c-2.538,1.299-4.963,1.812-8.764,1.812c-3.261-0.062-7.074-1.073-10.124-4.024c-3.1-2.986-3.125-7.012-0.012-9.975 c3.425-3.301,7.7-4.287,12.324-4.025c3.276,0.201,6.3,1.188,8.888,3.264C38.662,70.639,38.826,75.227,34.988,78.588z M53.619,67.848c-0.278,0.234-0.592,0.444-0.913,0.606c-0.87,0.446-1.701,0.623-3.004,0.623c-1.12-0.022-2.427-0.369-3.472-1.382 c-1.063-1.023-1.072-2.404-0.005-3.42c1.174-1.131,2.64-1.471,4.226-1.381c1.123,0.068,2.16,0.407,3.048,1.119 C54.88,65.119,54.936,66.693,53.619,67.848z M86.562,78.15c-3.051,2.949-6.863,3.961-10.125,4.023 c-3.801,0-6.227-0.513-8.763-1.812c-0.938-0.477-1.851-1.088-2.663-1.774c-3.837-3.362-3.675-7.95,0.35-11.175 c2.589-2.075,5.613-3.062,8.889-3.264c4.625-0.262,8.9,0.726,12.324,4.025C89.688,71.139,89.662,75.163,86.562,78.15z"/></g>></symbol>
<symbol id="map" viewBox="-8 -8 115 115"><path d="m2.5 49.301c0.3-26.301 21.801-47.5 47.898-47.102 26.301 0.402 47.301 21.801 47.102 47.902-0.199 26.199-21.801 47.398-47.898 47.102-26.402-0.203-47.301-21.602-47.102-47.902zm72.5 34.301c-0.101-4.199-0.398-8.101-5.898-7.199-0.199 0-0.601-0.398-0.699-0.601-0.898-3.398-2.8-1.601-4.398-0.898-5.5 2.199-8 0.398-7.199-5.3 0.101-0.398 0-0.898-0.101-1.398-0.199-2.898 1.601-5.3 4.5-5.601 0.898-0.101 1.898-0.101 2.8-0.398 5.699-1.8 5.699-1.8 8.699 3.199 0.3 0.5 0.898 0.898 1.398 1.3 0.199-0.601 0.699-1.398 0.601-1.898-0.199-1.101-0.8-2.199-1.101-3.398-0.199-0.898-0.601-2.398-0.3-2.601 2.601-1.699 1.5-3.699 1.101-5.898-0.402-1.804 0.898-3.906 1.597-5.906 0.398-0.8 1.5-1.101 2.101-1.898 0.699-0.898 1.3-1.898 1.898-2.898-0.898-0.398-1.898-0.8-2.8-1-2.101-0.398-2.101-1.601-1.3-3.199 1.199-2.101 2.101-1.199 3.5 0.101 0.601 0.601 2.199 0.101 3.3-0.101 0.199-0.101 0.5-1.699 0.199-1.898-3.601-2.601-7.3-5.101-11-7.601-0.398 1.101-0.101 1.601-0.101 2.101 0 0.898-0.199 1.699-0.3 2.601-0.699-0.398-1.5-0.898-2.101-1.398-0.398-0.3-0.5-1.101-0.8-1.101-1.199-0.101-2.601-0.398-3.699 0-0.398 0.199-0.601 2.101-0.199 3.101 0.699 2.199 1.898 4.3 2.699 6.5 0.3 0.699 0.101 1.601 0.199 2.398-0.699-0.398-1.5-0.898-2.199-1.199-1.101-0.601-2.398-1.101-3.601-1.5-1.898-0.5-3.8-0.5-5.601-1.101-0.8-0.3-1.8-2.398-1.699-2.398 3.101-2.601 1.699-6.199 2.101-9.3 0.101-0.8 1.601-1.5 2.601-1.898 0.601-0.3 1.5 0.101 2.3 0.101-0.398-0.8-0.601-2.101-1.199-2.398-1.398-0.5-2.898-0.5-4.398-0.601-1.101-0.101-2.101-0.101-3.199-0.101-1.8-0.101-3.8-0.699-5.3-0.101-1.101 0.398-1.3 3.199-2.398 3.5-1.3 0.398-3-1.3-4.398-1.101-1.601 0.199-3.199 1.601-4.898 2.101-0.8 0.199-1.898-0.5-2.699-1-0.601-0.398-1.3-1.8-1.601-1.601-0.898 0.199-2.101 0.898-2.398 1.699-0.898 2.601-4.699 4.199-2.8 7.898 0.101 0.101-1.101 0.898-1.8 1.3-0.398 0.199-0.898 0.398-1.398 0.5 0.601 0.398 1.101 1 1.601 1 2.398 0.101 4.699-0.101 7.101-0.101 3.601 0 10 8.398 9 11.801-0.101 0.398-0.398 0.898-0.699 1.199-3.898 5.398-4.101 11.398-0.101 16.699 1.398 1.898 2.898 3.8 4.5 5.5 0.601 0.601 1.699 0.8 2.601 1.101-0.398-1-0.5-2.101-1.101-3.101-1.101-1.601-2.3-3.199-3.398-4.8 0.3-0.199 0.601-0.5 0.898-0.699 2 1.898 4.898 3.398 5.8 5.699 2.601 6.398 8 8 13.699 9 4.394 0.898 9.492-1.199 12.094 4.800zm-13-65.203c0.898 2.898 0.5 5.898 4.101 5.699 4.898-0.398 8.898 1 12 4.898 0.3 0.398 1 0.5 1.5 0.8 0.3-0.601 0.898-1.398 0.699-1.898-0.898-2.3-1.5-4.898-3.101-6.699-2.101-2.398-4.898-4.398-7.8-6-1.3-0.699-3.5-0.699-4.898-0.101-1.199 0.402-1.8 2.3-2.5 3.300zm-44.602-0.398c3.699 0.398 7.601-0.101 10.102 1.5 3.699 2.398 3.8-0.898 3.898-2.101 0.398-3.101 2.101-4.898 4.199-6.699 1-0.8 1.8-1.898 2.601-2.898 0.398-0.5 0.398-1.199 0.601-1.898-0.601 0.101-1.101 0-1.699 0.101-7.402 2.296-14 6.195-19.703 11.996zm61.203 63.801c0.101 0.5 0.199 1.398 0.398 2.3 0.898-0.5 1.898-0.898 2.5-1.601 2.898-3.601 5.699-7.199 8.398-11 1.398-1.898 0.5-2.3-1.5-2.3-5.597 0.199-8.898 6-9.796 12.602z"/></symbol>
<symbol id="tags" viewBox="-3 -6 70 75"><path d="M30.296,24.079c-.63281-.63281-1.463-.94922-2.294-.94922-.83203,0-1.663,.31641-2.295,.94922l-13.94,13.940c-1.265,1.265-1.265,3.325,0,4.590l6.797,6.798c2.825,2.824,7.419,2.823,10.243,0l11.114-11.114c1.265-1.265,1.265-3.325,0-4.591l-9.624-9.624Zm-3.916,23.512c-.14648,.14648-.33789,.21973-.53027,.21973s-.38379-.07324-.53027-.21973l-8.911-8.911c-.29297-.29297-.29297-.76758,0-1.060s.76758-.29297,1.06,0l8.911,8.911c.29297,.29297,.29297,.76758,0,1.060Zm4.448-4.448c-.14648,.14648-.33789,.21973-.53027,.21973s-.38379-.07324-.53027-.21973l-8.911-8.911c-.29297-.29297-.29297-.76758,0-1.060s.76758-.29297,1.06,0l8.911,8.911c.29297,.29297,.29297,.76758,0,1.060Zm4.448-4.448c-.14648,.14648-.33789,.21973-.53027,.21973s-.38379-.07324-.53027-.21973l-8.911-8.911c-.29297-.29297-.29297-.76758,0-1.060s.76758-.29297,1.06,0l8.911,8.911c.29297,.29297,.29297,.76758,0,1.060Z"/><path d="M55.607,18.164c.23608-.2182,.47302-.43427,.70476-.66638,5.083-5.082,6.911-11.219,4.16-13.97-2.752-2.75-8.886-.92383-13.97,4.159-2.362,2.361-4.116,5.066-4.937,7.616-.85107,2.642-.6062,4.84,.67151,6.226-.03394,.12915-.08783,.2533-.18561,.3548-.14972,.1554-.34534,.23309-.54193,.23309-.19666,0-.39227-.0777-.54193-.23309-.83167-.86273-1.259-2.057-1.294-3.479-1.259,1.662-1.149,4.04,.36554,5.556,.80176,.80176,1.868,1.243,3.001,1.243,1.134,0,2.2-.44141,3.001-1.243,1.655-1.655,1.655-4.349,0-6.004-.86567-.85587-2.084-1.358-3.305-1.209,.06696-.31921,.14728-.64539,.25665-.98511,.05695-.1767,.12848-.3559,.19537-.5343,1.478,.03784,2.864,.61877,3.914,1.668,1.084,1.085,1.683,2.528,1.683,4.062,0,1.534-.59863,2.977-1.683,4.062-1.084,1.084-2.527,1.682-4.062,1.682-1.534,0-2.977-.59766-4.062-1.682-2.239-2.24-2.239-5.885,0-8.125,.28577-.28577,.59906-.53284,.92969-.74896,.07306-.32703,.15979-.6604,.26581-1.001,.72473-2.335,2.162-4.792,4.095-7.032l-7.573-1.342c-1.52-.27051-3.088,.22168-4.184,1.316L3.64,36.958c-.89648,.896-1.39,2.088-1.39,3.356,0,1.267,.49414,2.459,1.39,3.355l16.688,16.688c.89648,.89648,2.087,1.39,3.356,1.39,1.267,0,2.458-.49365,3.355-1.390l28.87-28.869c1.094-1.095,1.587-2.659,1.317-4.184l-1.62-9.141Zm-14.626,21.190l-11.114,11.114c-1.704,1.704-3.943,2.556-6.181,2.556-2.239,0-4.478-.85205-6.182-2.556l-6.797-6.798c-1.85-1.85-1.85-4.861,0-6.711l13.94-13.940c1.849-1.849,4.862-1.851,6.711,0l9.624,9.624c1.85,1.85,1.85,4.861,0,6.712Zm14.119-24.048l-.38599-2.176c-.34668-1.954-1.891-3.499-3.844-3.844l-3.264-.57867c4.331-4.309,9.729-6.194,11.805-4.118,2.077,2.077,.18994,7.474-4.118,11.805l-.19275-1.086Z"/></symbol>
<symbol id="atom-solid" viewBox="0 0 48 48"><path d="M24,0A24,24,0,1,0,48,24,24.019,24.019,0,0,0,24,0Zm-.00391,19.66241a4.29029,4.29029,0,1,1-4.29022,4.29041A4.29043,4.29043,0,0,1,23.99609,19.66241ZM6.83673,23.70294A17.15352,17.15352,0,0,1,15.19885,9.215l5.2583,9.10766a6.64542,6.64542,0,0,0-3.1054,5.38031Zm17.15942,17.4112a17.08063,17.08063,0,0,1-8.365-2.17334l5.25843-9.10791a6.65708,6.65708,0,0,0,6.21319-.00007l5.25837,9.108A17.08064,17.08064,0,0,1,23.99615,41.11414Zm6.64435-17.4112A6.64419,6.64419,0,0,0,27.535,18.32263L32.7934,9.215a17.15323,17.15323,0,0,1,8.36224,14.488Z"/></symbol>
<symbol id="rss-solid" viewBox="0 0 100 100"><path d="M 21.474,0 C 9.572,0 0,9.572 0,21.474 L 0,78.525 C 0,90.427 9.572,100 21.474,100 l 57.051,0 C 90.427,100 100,90.427 100,78.525 l 0,-57.051 C 100,9.572 90.427,0 78.525,0 L 21.474,0 z m -4.3,14.85 c 37.753,0 68.376,30.595 68.376,68.349 l -13.675,0 C 71.875,52.996 47.377,28.525 17.174,28.525 l 0,-13.675 z m 0,23.05 C 42.199,37.9 62.5,58.174 62.5,83.199 l -13.274,0 c 0,-17.69 -14.36,-32.024 -32.051,-32.024 l 0,-13.274 z m 9.375,26.549 c 5.177,0 9.401,4.197 9.401,9.375 0,5.177 -4.224,9.375 -9.401,9.375 -5.177,0 -9.348,-4.197 -9.348,-9.375 0,-5.177 4.17,-9.375 9.348,-9.375 z"/></symbol>
<symbol id="rss" viewBox="0 0 100 100"><path d="m43.512 53.078c-0.242-0.257-0.464-0.535-0.671-0.835 0.281 0.234 0.507 0.523 0.671 0.835z"/><path d="m56.102 53.477c0.21-0.351 0.5-0.66 0.851-0.906-0.257 0.328-0.546 0.628-0.851 0.906z"/><path d="m57.766 51.324c0.078-0.433 0.253-0.835 0.492-1.175-0.128 0.417-0.3 0.812-0.492 1.175z"/><path d="m70.082 83.316c-12.754 7.347-29.59 6.937-41.934-1.066l13.477-23.152c4.761 3.152 11.113 3.273 16.035 0.429z"/><path d="m91.176 47.184c0 0.57-0.011 1.148-0.042 1.730h-26.629c0.707-6.804-3.277-12.801-8.14-14.852l14.34-22.629c12.695 7.371 20.469 20.84 20.469 35.754z"/><path d="m39.746 36.754c-2.078 1.863-4.785 6.601-4.16 12.16l-26.723-0.003c-0.675-15.438 7.242-29.852 20.422-37.488l13.652 22.98c-1.164 0.628-2.242 1.41-3.195 2.347z"/><path d="m58.711 47.336c0.195 9.148-13.406 11.562-16.734 3.265 0-0.007-0.007-0.011-0.007-0.019-4.363-13.195 15.984-17.301 16.742-3.246z"/></symbol>
<symbol id="atom" viewBox="0 0 100 100"><g><path d="M16.929,30.115 M84.446,84.262c0-37.271-30.323-67.613-67.587-67.613l0,0l0.069,13.467 c29.777,0.039,53.995,24.256,54.051,54.042L84.446,84.262z"/><path d="M16.843,53.089 M61.472,84.262c0-24.616-20.026-44.639-44.628-44.639l0,0v13.466c17.182,0,31.161,13.984,31.161,31.173 H61.472z"/><circle cx="26.695" cy="74.305" r="9.812"/></g></symbol>
</svg>
